<?xml version="1.0" encoding="utf-8"?>
<!-- Generator: Adobe Illustrator 25.0.1, SVG Export Plug-In . SVG Version: 6.00 Build 0)  -->
<svg version="1.1" id="Ebene_1" xmlns="http://www.w3.org/2000/svg" xmlns:xlink="http://www.w3.org/1999/xlink" x="0px" y="0px"
	 viewBox="0 0 40.2 41" style="enable-background:new 0 0 40.2 41;" xml:space="preserve">
<style type="text/css">
	.st0{fill:#BF0505;}
	.st1{fill:#FFFFFF;}
</style>
<circle class="st0" cx="20.1" cy="20.1" r="20.1"/>
<g>
	<path class="st1" d="M35.4,35.5c0,2.1-3.8,5.5-6.9,5.5c-1.5,0-4.9-5.8-5.9-7.8c-2.4-5.2-3.4-7-5.1-7.6c-0.7,2.8-1.2,6-1.3,7.3
		c-0.3,0.4-0.9,0.7-1.9,0.7c-2.2,0-3.6-2.2-3.6-3.7c0-1,0.3-2.5,1.9-7.4c1.1-3.3,2.4-7.1,3.8-11.5c-3.2,0.4-6,3.2-7.3,5.7
		c-0.2,0.1-0.6,0.2-0.9,0.2c-1,0-1.6-0.9-1.6-2.2c0-3.9,6.5-9.6,14.6-9.6c6.5,0,9.8,3.2,9.8,7.7c0,3.8-2.2,7.1-6.6,11.1
		c0.8,0.8,2.3,2.7,3.7,5.4c0.5,0.9,1.7,4,3.5,5.4C33.3,36.2,35.4,35.1,35.4,35.5z M24.8,14.6c0-2-1.2-3.7-4.5-3.9
		c-0.1,2.4-0.8,6.3-1.9,11.2c0.4-0.1,0.8-0.1,1.3-0.1c0.7,0,1.5,0.1,2,0.3C24.1,18.8,24.8,16.9,24.8,14.6z"/>
</g>
</svg>
